<?xml version="1.0" encoding="utf-8"?>
<!-- Generator: Adobe Illustrator 17.0.0, SVG Export Plug-In . SVG Version: 6.00 Build 0)  -->
<!DOCTYPE svg PUBLIC "-//W3C//DTD SVG 1.1//EN" "http://www.w3.org/Graphics/SVG/1.1/DTD/svg11.dtd">
<svg version="1.1" id="Layer_1" xmlns="http://www.w3.org/2000/svg" xmlns:xlink="http://www.w3.org/1999/xlink" x="0px" y="0px"
    width="500px" height="220.067px" viewBox="0 0 500 220.067" enable-background="new 0 0 500 320.067" xml:space="preserve">
<g id="text">
   <g id="nem">
      <path fill-rule="evenodd" clip-rule="evenodd" fill="#4D4D4D" d="M371.896,176.183v-63.002c0-11.677-2.887-20.521-8.665-26.537
         c-5.778-6.018-13.778-9.028-24.009-9.028c-6.618,0-12.516,1.297-17.693,3.91c-5.172,2.619-9.867,6.439-14.081,11.557
         c-2.528-4.997-6.106-8.784-10.741-11.462c-4.632-2.679-10.137-4.005-16.517-4.005c-3.492,0-6.647,0.422-9.48,1.267
         c-2.827,0.87-5.386,2.013-7.672,3.459c-2.285,1.476-4.362,3.13-6.226,4.993c-1.868,1.897-3.582,3.851-5.147,5.928V79.424h-27.437
         v96.759h27.437v-53.855c0-6.469,1.476-11.372,4.423-14.652c2.95-3.309,7.011-4.968,12.188-4.968c5.173,0,9.146,1.659,11.914,4.968
         c2.769,3.28,4.154,8.184,4.154,14.652v53.855h27.437v-53.855c0-6.469,1.475-11.372,4.422-14.652
         c2.951-3.309,7.011-4.968,12.189-4.968c5.173,0,9.146,1.659,11.914,4.968c2.767,3.28,4.149,8.184,4.149,14.652v53.855H371.896z"/>
      <path fill-rule="evenodd" clip-rule="evenodd" fill="#4D4D4D" d="M203.828,130.511v-0.362c0-6.861-0.934-13.45-2.797-19.766
         c-1.863-6.319-4.755-11.914-8.666-16.789c-3.91-4.874-8.814-8.755-14.712-11.646c-5.897-2.887-12.878-4.333-20.942-4.333
         c-7.1,0-13.569,1.326-19.407,3.975c-5.833,2.644-10.861,6.256-15.07,10.827c-4.213,4.576-7.493,9.932-9.842,16.068
         c-2.345,6.137-3.518,12.636-3.518,19.497v0.362c0,7.463,1.263,14.23,3.791,20.307c2.529,6.077,6.047,11.344,10.559,15.796
         c4.516,4.456,9.873,7.885,16.068,10.29c6.201,2.409,12.908,3.611,20.128,3.611c8.785,0,16.431-1.595,22.93-4.784
         c6.499-3.191,12.034-7.612,16.605-13.267l-15.706-13.902c-3.851,3.488-7.582,6.018-11.19,7.582
         c-3.612,1.566-7.706,2.346-12.277,2.346c-6.136,0-11.283-1.595-15.437-4.78c-4.149-3.189-6.887-7.915-8.213-14.175h67.335
         c0.124-1.322,0.213-2.465,0.273-3.429C203.799,132.976,203.828,131.833,203.828,130.511L203.828,130.511z M177.112,120.221
         h-41.339c1.083-6.26,3.398-11.254,6.947-14.984c3.552-3.732,8.217-5.596,13.991-5.596c5.778,0,10.41,1.894,13.902,5.685
         C174.101,109.116,176.268,114.08,177.112,120.221z"/>
      <path fill-rule="evenodd" clip-rule="evenodd" fill="#4D4D4D" d="M89.739,176.183v-62.644c0-11.19-2.857-19.975-8.576-26.354
         c-5.714-6.379-13.808-9.569-24.277-9.569c-3.493,0-6.622,0.422-9.39,1.267c-2.768,0.87-5.296,2.013-7.582,3.459
         c-2.286,1.476-4.362,3.13-6.226,4.993c-1.868,1.897-3.582,3.851-5.147,5.928V79.424H1.103v96.759H28.54v-53.855
         c0-6.469,1.535-11.372,4.606-14.652c3.066-3.309,7.249-4.968,12.546-4.968s9.386,1.659,12.277,4.968
         c2.887,3.28,4.333,8.184,4.333,14.652v53.855H89.739z"/>
   </g>
</g>
<g id="logo">
   <g id="XMLID_1_">
      <g>
         <path fill="#DFA82F" d="M476.437,9.428l0.08-0.236c6.073,2.047,12.02,4.609,17.774,7.674c1.194,0.636,2.048,1.211,2.73,2.386
            c0.6,1.042,0.812,1.98,0.776,3.173c-0.993,32.996-15.662,63.769-39.937,85.269l-0.109-0.121
            c5.797-5.256,9.436-12.84,9.436-21.275c0-10.46-5.596-19.617-13.958-24.626c-0.269-0.164-0.54-0.321-0.818-0.473
            c-0.006-0.006-0.012-0.006-0.018-0.011c-8.33-5.021-13.894-14.155-13.894-24.59c0-15.843,12.845-28.689,28.688-28.689
            C470.431,7.908,473.537,8.44,476.437,9.428z"/>
         <path fill="#8E8E8E" d="M381.74,42.6l-0.184,0.036c-1.35-6.595-2.149-13.354-2.355-20.204c-0.036-1.193,0.177-2.138,0.774-3.174
            c0.679-1.181,1.538-1.756,2.732-2.392c29.114-15.504,63.091-18.06,93.81-7.674l-0.08,0.236c-2.9-0.988-6.007-1.52-9.249-1.52
            c-15.844,0-28.688,12.846-28.688,28.689c0,10.454-5.59,19.604-13.95,24.619c-0.264,0.164-0.537,0.321-0.815,0.473
            c-4.126,2.295-8.873,3.604-13.93,3.604C396.014,65.293,384.501,55.566,381.74,42.6z"/>
         <path fill="#41CE7B" d="M457.753,107.572l0.109,0.121c-4.682,4.155-9.714,7.952-15.079,11.362
            c-1.407,0.891-2.538,1.132-4.216,1.132c-1.679,0-2.945-0.242-4.357-1.139c-27.411-17.399-46.259-45.12-52.654-76.413l0.184-0.036
            c2.761,12.966,14.273,22.693,28.065,22.693c5.057,0,9.804-1.309,13.93-3.604c0.278-0.152,0.552-0.309,0.815-0.473
            c4.126-2.301,8.888-3.616,13.95-3.616c5.039,0,9.775,1.303,13.894,3.587c0.006,0.005,0.012,0.005,0.018,0.011
            c0.272,0.164,0.545,0.321,0.818,0.473c8.362,5.009,13.958,14.166,13.958,24.626C467.188,94.732,463.55,102.316,457.753,107.572z"
            />
         <path fill="#4D4D4D" d="M438.5,36.597c0,10.435,5.564,19.568,13.894,24.59c-4.119-2.284-8.855-3.587-13.894-3.587
            c-5.063,0-9.824,1.315-13.95,3.616C432.91,56.202,438.5,47.051,438.5,36.597z"/>
      </g>
      <g>
         <path fill="#4D4D4D" d="M438.567,122.35c-1.658,0-3.472-0.179-5.516-1.476c-27.538-17.48-47.079-45.839-53.612-77.806
            c-1.386-6.76-2.192-13.682-2.398-20.572c-0.051-1.63,0.277-2.963,1.065-4.322c0.997-1.737,2.319-2.541,3.586-3.217
            c17.416-9.276,37.059-14.179,56.801-14.179c13.198,0,26.227,2.142,38.717,6.365c6.194,2.088,12.284,4.716,18.1,7.813
            c1.259,0.672,2.574,1.471,3.582,3.206c0.791,1.372,1.119,2.704,1.068,4.329c-0.997,33.17-15.819,64.816-40.663,86.82
            c-4.768,4.232-9.934,8.124-15.354,11.568C442.015,122.101,440.4,122.35,438.567,122.35z M438.492,5.103
            c-19.036,0-37.973,4.727-54.767,13.671c-1.107,0.589-1.509,0.925-1.873,1.561c-0.385,0.661-0.513,1.21-0.489,2.031
            c0.2,6.644,0.978,13.317,2.314,19.836c6.298,30.822,25.141,58.166,51.694,75.021c0.943,0.6,1.75,0.802,3.196,0.802
            c1.379,0,2.093-0.186,3.056-0.796c5.225-3.319,10.206-7.072,14.803-11.153c23.956-21.219,38.247-51.731,39.211-83.715
            c0.025-0.829-0.101-1.36-0.487-2.03c-0.37-0.633-0.772-0.97-1.875-1.557c-5.603-2.985-11.476-5.519-17.448-7.533
            C463.779,7.168,451.22,5.103,438.492,5.103z"/>
         <path fill="#4D4D4D" d="M454.255,112.198l-1.688-2.77c1.461-0.891,2.84-1.919,4.098-3.058c5.657-5.13,8.902-12.447,8.902-20.072
            c0-9.467-5.047-18.37-13.171-23.234c-0.259-0.159-0.509-0.302-0.76-0.44l1.55-2.849c0.305,0.165,0.602,0.337,0.891,0.515
            c9.084,5.438,14.733,15.407,14.733,26.008c0,8.539-3.633,16.731-9.967,22.477C457.432,110.05,455.89,111.201,454.255,112.198z"/>
         <path fill="#4D4D4D" d="M425.343,62.632l-1.581-2.832c4.479-2.5,9.576-3.821,14.738-3.821c5.133,0,10.21,1.31,14.681,3.789
            l-1.574,2.837c-3.99-2.213-8.523-3.382-13.106-3.382C433.892,59.223,429.34,60.402,425.343,62.632z"/>
         <path fill="#4D4D4D" d="M409.805,66.914c-14.221,0-26.694-10.083-29.651-23.976c-0.248-1.147-0.43-2.343-0.538-3.554l3.23-0.292
            c0.097,1.079,0.259,2.144,0.479,3.165c2.645,12.41,13.779,21.414,26.48,21.414c4.603,0,9.146-1.176,13.142-3.399
            c0.266-0.146,0.514-0.288,0.757-0.437c8.254-4.954,13.174-13.637,13.174-23.238h3.244c0,10.59-5.647,20.557-14.733,26.01
            c-0.275,0.17-0.573,0.341-0.878,0.506C420.046,65.597,414.958,66.914,409.805,66.914z"/>
         <path fill="#4D4D4D" d="M452.441,63.088c-0.276-0.153-0.552-0.311-0.825-0.476l-0.21-0.128
            c-9.1-5.556-14.529-15.221-14.529-25.887c0-16.713,13.6-30.311,30.311-30.311c3.352,0,6.639,0.541,9.771,1.607
            c0.447,0.157,0.874,0.314,1.295,0.479l-1.175,3.023c-0.39-0.151-0.785-0.297-1.181-0.437c-2.779-0.945-5.717-1.427-8.71-1.427
            c-14.925,0-27.067,12.143-27.067,27.067c0,9.562,4.885,18.223,13.069,23.176l0.205,0.124c0.207,0.123,0.414,0.242,0.621,0.357
            L452.441,63.088z"/>
      </g>
   </g>
</g>
</svg>
