<?xml version="1.0" encoding="utf-8"?>
<!-- Generator: Adobe Illustrator 17.0.0, SVG Export Plug-In . SVG Version: 6.00 Build 0)  -->
<!DOCTYPE svg PUBLIC "-//W3C//DTD SVG 1.1//EN" "http://www.w3.org/Graphics/SVG/1.1/DTD/svg11.dtd">
<svg version="1.1" id="Layer_1" xmlns="http://www.w3.org/2000/svg" xmlns:xlink="http://www.w3.org/1999/xlink" x="0px" y="0px"
    width="500px" height="220.067px" viewBox="0 0 500 220.067" enable-background="new 0 0 500 320.067" xml:space="preserve">
<g id="text">
   <g id="a_new_economy_starts_with_you.">
      <path fill-rule="evenodd" clip-rule="evenodd" fill="#ffffff" d="M11.483,201.44h3.313v13.22h-3.313v-1.407
         c-0.644,0.614-1.296,1.054-1.949,1.326c-0.652,0.269-1.36,0.405-2.12,0.405c-1.714,0-3.189-0.661-4.439-1.983
         c-1.249-1.321-1.872-2.964-1.872-4.925c0-2.038,0.606-3.706,1.813-5.011c1.207-1.297,2.673-1.949,4.401-1.949
         c0.793,0,1.54,0.149,2.234,0.444c0.699,0.294,1.339,0.741,1.932,1.334V201.44L11.483,201.44z M7.995,204.152
         c-1.028,0-1.885,0.363-2.559,1.088c-0.682,0.725-1.023,1.654-1.023,2.784c0,1.144,0.346,2.082,1.04,2.819
         c0.691,0.733,1.544,1.105,2.554,1.105c1.041,0,1.911-0.362,2.593-1.088c0.691-0.725,1.036-1.671,1.036-2.849
         c0-1.146-0.345-2.076-1.036-2.793C9.918,204.511,9.044,204.152,7.995,204.152z"/>
      <path fill-rule="evenodd" clip-rule="evenodd" fill="#ffffff" d="M25.103,201.44h3.314v1.36c0.75-0.631,1.433-1.065,2.042-1.313
         c0.61-0.247,1.236-0.371,1.876-0.371c1.313,0,2.426,0.457,3.339,1.369c0.768,0.78,1.156,1.932,1.156,3.45v8.725h-3.288v-5.778
         c0-1.578-0.068-2.622-0.209-3.139c-0.141-0.52-0.392-0.912-0.742-1.181c-0.35-0.273-0.785-0.41-1.301-0.41
         c-0.674,0-1.25,0.227-1.731,0.674c-0.482,0.448-0.815,1.07-0.998,1.859c-0.098,0.414-0.145,1.305-0.145,2.678v5.297h-3.314V201.44
         z"/>
      <path fill-rule="evenodd" clip-rule="evenodd" fill="#ffffff" d="M53.278,208.984H42.634c0.153,0.942,0.567,1.692,1.228,2.251
         c0.665,0.56,1.514,0.837,2.545,0.837c1.237,0,2.294-0.436,3.181-1.31l2.781,1.317c-0.695,0.985-1.527,1.719-2.495,2.196
         c-0.968,0.469-2.119,0.708-3.45,0.708c-2.068,0-3.753-0.652-5.049-1.957c-1.301-1.306-1.953-2.939-1.953-4.9
         c0-2.013,0.652-3.685,1.953-5.015c1.296-1.331,2.921-1.996,4.887-1.996c2.077,0,3.77,0.665,5.075,1.987
         c1.301,1.33,1.953,3.075,1.953,5.254L53.278,208.984L53.278,208.984z M49.982,206.395c-0.222-0.725-0.652-1.313-1.296-1.766
         c-0.648-0.451-1.394-0.674-2.247-0.674c-0.925,0-1.735,0.252-2.439,0.764c-0.435,0.316-0.84,0.874-1.215,1.676H49.982z"/>
      <polygon fill-rule="evenodd" clip-rule="evenodd" fill="#ffffff" points="54.528,201.44 57.747,201.44 60.425,208.963
         63.291,201.44 65.287,201.44 68.093,208.878 70.758,201.44 73.995,201.44 69.21,214.66 67.107,214.66 64.259,207.125
         61.363,214.66 59.283,214.66 		"/>
      <path fill-rule="evenodd" clip-rule="evenodd" fill="#ffffff" d="M96.093,208.984H85.449c0.153,0.942,0.567,1.692,1.229,2.251
         c0.665,0.56,1.514,0.837,2.546,0.837c1.237,0,2.294-0.436,3.181-1.31l2.781,1.317c-0.695,0.985-1.527,1.719-2.495,2.196
         c-0.968,0.469-2.119,0.708-3.45,0.708c-2.068,0-3.752-0.652-5.049-1.957c-1.301-1.306-1.953-2.939-1.953-4.9
         c0-2.013,0.652-3.685,1.953-5.015c1.296-1.331,2.921-1.996,4.887-1.996c2.077,0,3.77,0.665,5.075,1.987
         c1.301,1.33,1.953,3.075,1.953,5.254L96.093,208.984L96.093,208.984z M92.796,206.395c-0.222-0.725-0.652-1.313-1.296-1.766
         c-0.648-0.451-1.395-0.674-2.247-0.674c-0.926,0-1.736,0.252-2.439,0.764c-0.435,0.316-0.84,0.874-1.215,1.676H92.796z"/>
      <path fill-rule="evenodd" clip-rule="evenodd" fill="#ffffff" d="M111.743,204.132l-2.759,1.518
         c-0.521-0.546-1.028-0.917-1.535-1.13c-0.507-0.213-1.1-0.315-1.782-0.315c-1.237,0-2.243,0.371-3.006,1.104
         c-0.768,0.737-1.152,1.68-1.152,2.831c0,1.122,0.371,2.034,1.104,2.747c0.742,0.707,1.706,1.062,2.904,1.062
         c1.484,0,2.635-0.508,3.467-1.519l2.61,1.791c-1.42,1.843-3.42,2.764-6.004,2.764c-2.329,0-4.149-0.69-5.463-2.064
         c-1.318-1.373-1.979-2.977-1.979-4.818c0-1.279,0.32-2.452,0.959-3.526c0.644-1.075,1.535-1.924,2.687-2.537
         c1.143-0.614,2.426-0.922,3.846-0.922c1.313,0,2.49,0.261,3.54,0.785C110.225,202.426,111.078,203.168,111.743,204.132z"/>
      <path fill-rule="evenodd" clip-rule="evenodd" fill="#ffffff" d="M120.954,201.116c1.249,0,2.422,0.312,3.522,0.935
         c1.104,0.622,1.957,1.467,2.576,2.532c0.618,1.071,0.925,2.218,0.925,3.454c0,1.246-0.311,2.405-0.93,3.488
         c-0.623,1.084-1.467,1.933-2.537,2.542c-1.075,0.61-2.256,0.917-3.544,0.917c-1.902,0-3.522-0.674-4.866-2.018
         c-1.343-1.347-2.017-2.984-2.017-4.903c0-2.065,0.759-3.778,2.282-5.156C117.696,201.713,119.223,201.116,120.954,201.116
         L120.954,201.116z M121.001,204.23c-1.032,0-1.889,0.358-2.576,1.07c-0.682,0.717-1.028,1.629-1.028,2.746
         c0,1.148,0.341,2.077,1.015,2.785c0.678,0.708,1.535,1.065,2.576,1.065c1.041,0,1.902-0.362,2.597-1.078
         c0.687-0.717,1.032-1.643,1.032-2.773c0-1.134-0.341-2.051-1.019-2.759C122.924,204.583,122.054,204.23,121.001,204.23z"/>
      <path fill-rule="evenodd" clip-rule="evenodd" fill="#ffffff" d="M130.668,201.44h3.313v1.36c0.751-0.631,1.433-1.065,2.043-1.313
         c0.61-0.247,1.237-0.371,1.876-0.371c1.313,0,2.426,0.457,3.339,1.369c0.768,0.78,1.156,1.932,1.156,3.45v8.725h-3.288v-5.778
         c0-1.578-0.068-2.622-0.209-3.139c-0.141-0.52-0.392-0.912-0.742-1.181c-0.35-0.273-0.785-0.41-1.301-0.41
         c-0.674,0-1.25,0.227-1.732,0.674c-0.482,0.448-0.814,1.07-0.997,1.859c-0.098,0.414-0.145,1.305-0.145,2.678v5.297h-3.313V201.44
         z"/>
      <path fill-rule="evenodd" clip-rule="evenodd" fill="#ffffff" d="M151.832,201.116c1.25,0,2.422,0.312,3.523,0.935
         c1.104,0.622,1.957,1.467,2.576,2.532c0.618,1.071,0.925,2.218,0.925,3.454c0,1.246-0.311,2.405-0.93,3.488
         c-0.623,1.084-1.467,1.933-2.537,2.542c-1.075,0.61-2.256,0.917-3.544,0.917c-1.902,0-3.522-0.674-4.866-2.018
         c-1.343-1.347-2.017-2.984-2.017-4.903c0-2.065,0.759-3.778,2.282-5.156C148.575,201.713,150.101,201.116,151.832,201.116
         L151.832,201.116z M151.879,204.23c-1.032,0-1.889,0.358-2.576,1.07c-0.682,0.717-1.027,1.629-1.027,2.746
         c0,1.148,0.341,2.077,1.015,2.785c0.678,0.708,1.535,1.065,2.576,1.065c1.04,0,1.902-0.362,2.597-1.078
         c0.686-0.717,1.032-1.643,1.032-2.773c0-1.134-0.341-2.051-1.019-2.759C153.803,204.583,152.933,204.23,151.879,204.23z"/>
      <path fill-rule="evenodd" clip-rule="evenodd" fill="#ffffff" d="M161.521,201.44h3.314v1.544
         c0.567-0.627,1.198-1.096,1.893-1.403c0.695-0.311,1.454-0.465,2.277-0.465c0.823,0,1.574,0.205,2.239,0.61
         c0.669,0.409,1.203,1.006,1.612,1.786c0.525-0.78,1.173-1.377,1.94-1.786c0.768-0.405,1.608-0.61,2.52-0.61
         c0.939,0,1.77,0.222,2.482,0.657c0.721,0.435,1.228,1.006,1.544,1.71c0.312,0.703,0.469,1.851,0.469,3.433v7.744h-3.309v-6.683
         c0-1.492-0.188-2.503-0.567-3.031c-0.375-0.524-0.942-0.794-1.692-0.794c-0.58,0-1.092,0.162-1.544,0.486
         c-0.457,0.32-0.797,0.768-1.019,1.339c-0.218,0.567-0.333,1.48-0.333,2.742v5.941h-3.309v-6.38c0-1.177-0.089-2.029-0.264-2.558
         c-0.175-0.529-0.443-0.922-0.789-1.182c-0.354-0.256-0.78-0.389-1.279-0.389c-0.554,0-1.062,0.162-1.514,0.49
         c-0.456,0.329-0.793,0.785-1.02,1.374c-0.226,0.588-0.336,1.518-0.336,2.784v5.859h-3.314V201.44z"/>
      <polygon fill-rule="evenodd" clip-rule="evenodd" fill="#ffffff" points="183.474,201.44 186.877,201.44 190.297,209.718
         194.093,201.44 197.487,201.44 189.214,219.492 185.82,219.492 188.511,213.684 		"/>
      <path fill-rule="evenodd" clip-rule="evenodd" fill="#ffffff" d="M214.447,203.312l-2.047,2.06
         c-0.832-0.827-1.587-1.24-2.265-1.24c-0.371,0-0.661,0.076-0.875,0.234c-0.209,0.157-0.315,0.354-0.315,0.584
         c0,0.179,0.068,0.341,0.201,0.49c0.132,0.15,0.465,0.355,0.993,0.614l1.211,0.605c1.275,0.627,2.158,1.27,2.636,1.923
         c0.474,0.653,0.712,1.416,0.712,2.299c0,1.169-0.431,2.149-1.296,2.93c-0.862,0.78-2.021,1.173-3.472,1.173
         c-1.928,0-3.472-0.751-4.618-2.256l2.047-2.226c0.388,0.451,0.844,0.822,1.373,1.1c0.52,0.277,0.985,0.418,1.395,0.418
         c0.434,0,0.789-0.102,1.058-0.315c0.269-0.209,0.4-0.452,0.4-0.725c0-0.513-0.482-1.007-1.445-1.489l-1.117-0.562
         c-2.141-1.074-3.211-2.418-3.211-4.029c0-1.045,0.4-1.936,1.206-2.674c0.807-0.738,1.834-1.109,3.088-1.109
         c0.857,0,1.663,0.192,2.422,0.567C213.282,202.064,213.922,202.605,214.447,203.312z"/>
      <polygon fill-rule="evenodd" clip-rule="evenodd" fill="#ffffff" points="217.713,196.561 221.022,196.561 221.022,201.44
         222.988,201.44 222.988,204.302 221.022,204.302 221.022,214.66 217.713,214.66 217.713,204.302 216.02,204.302 216.02,201.44
         217.713,201.44 		"/>
      <path fill-rule="evenodd" clip-rule="evenodd" fill="#ffffff" d="M234.558,201.44h3.314v13.22h-3.314v-1.407
         c-0.643,0.614-1.297,1.054-1.949,1.326c-0.652,0.269-1.36,0.405-2.119,0.405c-1.714,0-3.189-0.661-4.439-1.983
         c-1.249-1.321-1.872-2.964-1.872-4.925c0-2.038,0.605-3.706,1.812-5.011c1.207-1.297,2.674-1.949,4.4-1.949
         c0.794,0,1.54,0.149,2.235,0.444c0.699,0.294,1.339,0.741,1.932,1.334V201.44L234.558,201.44z M231.069,204.152
         c-1.027,0-1.885,0.363-2.559,1.088c-0.683,0.725-1.023,1.654-1.023,2.784c0,1.144,0.345,2.082,1.04,2.819
         c0.692,0.733,1.544,1.105,2.555,1.105c1.04,0,1.91-0.362,2.593-1.088c0.69-0.725,1.036-1.671,1.036-2.849
         c0-1.146-0.346-2.076-1.036-2.793C232.992,204.511,232.118,204.152,231.069,204.152z"/>
      <path fill-rule="evenodd" clip-rule="evenodd" fill="#ffffff" d="M240.438,201.44h2.865v1.681c0.307-0.657,0.712-1.151,1.22-1.493
         c0.508-0.341,1.066-0.512,1.667-0.512c0.427,0,0.875,0.111,1.344,0.342l-1.028,2.861c-0.388-0.192-0.707-0.29-0.955-0.29
         c-0.507,0-0.938,0.315-1.287,0.946c-0.351,0.631-0.524,1.868-0.524,3.71l0.013,0.645v5.33h-3.314V201.44z"/>
      <polygon fill-rule="evenodd" clip-rule="evenodd" fill="#ffffff" points="249.572,196.561 252.882,196.561 252.882,201.44
         254.848,201.44 254.848,204.302 252.882,204.302 252.882,214.66 249.572,214.66 249.572,204.302 247.879,204.302 247.879,201.44
         249.572,201.44 		"/>
      <path fill-rule="evenodd" clip-rule="evenodd" fill="#ffffff" d="M264.724,203.312l-2.047,2.06
         c-0.831-0.827-1.586-1.24-2.265-1.24c-0.371,0-0.66,0.076-0.874,0.234c-0.209,0.157-0.315,0.354-0.315,0.584
         c0,0.179,0.068,0.341,0.2,0.49c0.133,0.15,0.465,0.355,0.994,0.614l1.211,0.605c1.275,0.627,2.158,1.27,2.636,1.923
         c0.473,0.653,0.712,1.416,0.712,2.299c0,1.169-0.431,2.149-1.296,2.93c-0.862,0.78-2.021,1.173-3.472,1.173
         c-1.928,0-3.472-0.751-4.618-2.256l2.047-2.226c0.388,0.451,0.844,0.822,1.373,1.1c0.52,0.277,0.985,0.418,1.395,0.418
         c0.435,0,0.789-0.102,1.058-0.315c0.269-0.209,0.4-0.452,0.4-0.725c0-0.513-0.481-1.007-1.445-1.489l-1.117-0.562
         c-2.141-1.074-3.211-2.418-3.211-4.029c0-1.045,0.4-1.936,1.206-2.674c0.807-0.738,1.834-1.109,3.088-1.109
         c0.857,0,1.663,0.192,2.422,0.567C263.56,202.064,264.199,202.605,264.724,203.312z"/>
      <polygon fill-rule="evenodd" clip-rule="evenodd" fill="#ffffff" points="273.103,201.44 276.323,201.44 279.001,208.963
         281.866,201.44 283.862,201.44 286.668,208.878 289.334,201.44 292.57,201.44 287.785,214.66 285.684,214.66 282.835,207.125
         279.939,214.66 277.858,214.66 		"/>
      <path fill-rule="evenodd" clip-rule="evenodd" fill="#ffffff" d="M295.785,196.012c0.58,0,1.079,0.214,1.493,0.631
         c0.418,0.423,0.627,0.926,0.627,1.523c0,0.588-0.209,1.091-0.618,1.509c-0.414,0.414-0.904,0.619-1.484,0.619
         c-0.589,0-1.088-0.209-1.506-0.632c-0.417-0.426-0.626-0.938-0.626-1.544c0-0.584,0.209-1.074,0.618-1.488
         C294.702,196.221,295.197,196.012,295.785,196.012L295.785,196.012z"/>
      <path fill-rule="evenodd" clip-rule="evenodd" fill="#ffffff" d="M375.118,210.702c0.58,0,1.079,0.214,1.493,0.631
         c0.418,0.423,0.627,0.926,0.627,1.524c0,0.588-0.209,1.091-0.618,1.509c-0.414,0.414-0.904,0.619-1.484,0.619
         c-0.589,0-1.088-0.209-1.506-0.632c-0.417-0.426-0.626-0.938-0.626-1.544c0-0.584,0.209-1.074,0.618-1.488
         C374.035,210.911,374.53,210.702,375.118,210.702L375.118,210.702z"/>
      <rect x="294.118" y="201.44" fill-rule="evenodd" clip-rule="evenodd" fill="#ffffff" width="3.313" height="13.22"/>
      <polygon fill-rule="evenodd" clip-rule="evenodd" fill="#ffffff" points="300.835,196.561 304.144,196.561 304.144,201.44
         306.11,201.44 306.11,204.302 304.144,204.302 304.144,214.66 300.835,214.66 300.835,204.302 299.142,204.302 299.142,201.44
         300.835,201.44 		"/>
      <path fill-rule="evenodd" clip-rule="evenodd" fill="#ffffff" d="M307.922,196.336h3.31v6.456
         c0.648-0.558,1.296-0.977,1.953-1.258c0.652-0.277,1.313-0.418,1.982-0.418c1.306,0,2.409,0.452,3.306,1.36
         c0.767,0.785,1.15,1.94,1.15,3.459v8.725h-3.262v-5.787c0-1.526-0.068-2.566-0.218-3.104c-0.145-0.546-0.392-0.946-0.746-1.215
         c-0.346-0.268-0.784-0.401-1.296-0.401c-0.67,0-1.245,0.227-1.728,0.67c-0.478,0.443-0.81,1.049-0.998,1.816
         c-0.094,0.401-0.145,1.305-0.145,2.721v5.301h-3.31V196.336z"/>
      <polygon fill-rule="evenodd" clip-rule="evenodd" fill="#ffffff" points="328.331,201.44 331.734,201.44 335.154,209.718
         338.95,201.44 342.345,201.44 334.071,219.492 330.677,219.492 333.368,213.684 		"/>
      <path fill-rule="evenodd" clip-rule="evenodd" fill="#ffffff" d="M350.468,201.116c1.249,0,2.422,0.312,3.522,0.935
         c1.105,0.622,1.957,1.467,2.576,2.532c0.618,1.071,0.925,2.218,0.925,3.454c0,1.246-0.311,2.405-0.93,3.488
         c-0.622,1.084-1.467,1.933-2.537,2.542c-1.074,0.61-2.256,0.917-3.544,0.917c-1.901,0-3.522-0.674-4.865-2.018
         c-1.344-1.347-2.017-2.984-2.017-4.903c0-2.065,0.76-3.778,2.281-5.156C347.21,201.713,348.736,201.116,350.468,201.116
         L350.468,201.116z M350.515,204.23c-1.032,0-1.889,0.358-2.575,1.07c-0.683,0.717-1.028,1.629-1.028,2.746
         c0,1.148,0.342,2.077,1.015,2.785c0.679,0.708,1.536,1.065,2.576,1.065c1.04,0,1.902-0.362,2.597-1.078
         c0.688-0.717,1.032-1.643,1.032-2.773c0-1.134-0.341-2.051-1.019-2.759C352.438,204.583,351.568,204.23,350.515,204.23z"/>
      <path fill-rule="evenodd" clip-rule="evenodd" fill="#ffffff" d="M360.182,201.44h3.361v6.358c0,1.236,0.089,2.094,0.26,2.575
         c0.166,0.483,0.443,0.854,0.818,1.126c0.38,0.265,0.85,0.396,1.399,0.396c0.554,0,1.023-0.132,1.411-0.392
         c0.384-0.265,0.674-0.648,0.858-1.16c0.137-0.38,0.209-1.194,0.209-2.439v-6.465h3.309v5.595c0,2.308-0.179,3.881-0.546,4.733
         c-0.443,1.036-1.104,1.83-1.97,2.384c-0.865,0.555-1.97,0.832-3.31,0.832c-1.449,0-2.622-0.324-3.517-0.973
         c-0.896-0.648-1.526-1.548-1.89-2.703c-0.264-0.802-0.393-2.256-0.393-4.371V201.44z"/>
   </g>
   <g id="nem">
      <path fill-rule="evenodd" clip-rule="evenodd" fill="#ffffff" d="M371.896,176.183v-63.002c0-11.677-2.887-20.521-8.665-26.537
         c-5.778-6.018-13.778-9.028-24.009-9.028c-6.618,0-12.516,1.297-17.693,3.91c-5.172,2.619-9.867,6.439-14.081,11.557
         c-2.528-4.997-6.106-8.784-10.741-11.462c-4.632-2.679-10.137-4.005-16.517-4.005c-3.492,0-6.647,0.422-9.48,1.267
         c-2.827,0.87-5.386,2.013-7.672,3.459c-2.285,1.476-4.362,3.13-6.226,4.993c-1.868,1.897-3.582,3.851-5.147,5.928V79.424h-27.437
         v96.759h27.437v-53.855c0-6.469,1.476-11.372,4.423-14.652c2.95-3.309,7.011-4.968,12.188-4.968c5.173,0,9.146,1.659,11.914,4.968
         c2.769,3.28,4.154,8.184,4.154,14.652v53.855h27.437v-53.855c0-6.469,1.475-11.372,4.422-14.652
         c2.951-3.309,7.011-4.968,12.189-4.968c5.173,0,9.146,1.659,11.914,4.968c2.767,3.28,4.149,8.184,4.149,14.652v53.855H371.896z"/>
      <path fill-rule="evenodd" clip-rule="evenodd" fill="#ffffff" d="M203.828,130.511v-0.362c0-6.861-0.934-13.45-2.797-19.766
         c-1.863-6.319-4.755-11.914-8.666-16.789c-3.91-4.874-8.814-8.755-14.712-11.646c-5.897-2.887-12.878-4.333-20.942-4.333
         c-7.1,0-13.569,1.326-19.407,3.975c-5.833,2.644-10.861,6.256-15.07,10.827c-4.213,4.576-7.493,9.932-9.842,16.068
         c-2.345,6.137-3.518,12.636-3.518,19.497v0.362c0,7.463,1.263,14.23,3.791,20.307c2.529,6.077,6.047,11.344,10.559,15.796
         c4.516,4.456,9.873,7.885,16.068,10.29c6.201,2.409,12.908,3.611,20.128,3.611c8.785,0,16.431-1.595,22.93-4.784
         c6.499-3.191,12.034-7.612,16.605-13.267l-15.706-13.902c-3.851,3.488-7.582,6.018-11.19,7.582
         c-3.612,1.566-7.706,2.346-12.277,2.346c-6.136,0-11.283-1.595-15.437-4.78c-4.149-3.189-6.887-7.915-8.213-14.175h67.335
         c0.124-1.322,0.213-2.465,0.273-3.429C203.799,132.976,203.828,131.833,203.828,130.511L203.828,130.511z M177.112,120.221
         h-41.339c1.083-6.26,3.398-11.254,6.947-14.984c3.552-3.732,8.217-5.596,13.991-5.596c5.778,0,10.41,1.894,13.902,5.685
         C174.101,109.116,176.268,114.08,177.112,120.221z"/>
      <path fill-rule="evenodd" clip-rule="evenodd" fill="#ffffff" d="M89.739,176.183v-62.644c0-11.19-2.857-19.975-8.576-26.354
         c-5.714-6.379-13.808-9.569-24.277-9.569c-3.493,0-6.622,0.422-9.39,1.267c-2.768,0.87-5.296,2.013-7.582,3.459
         c-2.286,1.476-4.362,3.13-6.226,4.993c-1.868,1.897-3.582,3.851-5.147,5.928V79.424H1.103v96.759H28.54v-53.855
         c0-6.469,1.535-11.372,4.606-14.652c3.066-3.309,7.249-4.968,12.546-4.968s9.386,1.659,12.277,4.968
         c2.887,3.28,4.333,8.184,4.333,14.652v53.855H89.739z"/>
   </g>
</g>
<g id="logo">
   <g id="XMLID_1_">
      <g>
         <path fill="#DFA82F" d="M476.437,9.428l0.08-0.236c6.073,2.047,12.02,4.609,17.774,7.674c1.194,0.636,2.048,1.211,2.73,2.386
            c0.6,1.042,0.812,1.98,0.776,3.173c-0.993,32.996-15.662,63.769-39.937,85.269l-0.109-0.121
            c5.797-5.256,9.436-12.84,9.436-21.275c0-10.46-5.596-19.617-13.958-24.626c-0.269-0.164-0.54-0.321-0.818-0.473
            c-0.006-0.006-0.012-0.006-0.018-0.011c-8.33-5.021-13.894-14.155-13.894-24.59c0-15.843,12.845-28.689,28.688-28.689
            C470.431,7.908,473.537,8.44,476.437,9.428z"/>
         <path fill="#8E8E8E" d="M381.74,42.6l-0.184,0.036c-1.35-6.595-2.149-13.354-2.355-20.204c-0.036-1.193,0.177-2.138,0.774-3.174
            c0.679-1.181,1.538-1.756,2.732-2.392c29.114-15.504,63.091-18.06,93.81-7.674l-0.08,0.236c-2.9-0.988-6.007-1.52-9.249-1.52
            c-15.844,0-28.688,12.846-28.688,28.689c0,10.454-5.59,19.604-13.95,24.619c-0.264,0.164-0.537,0.321-0.815,0.473
            c-4.126,2.295-8.873,3.604-13.93,3.604C396.014,65.293,384.501,55.566,381.74,42.6z"/>
         <path fill="#41CE7B" d="M457.753,107.572l0.109,0.121c-4.682,4.155-9.714,7.952-15.079,11.362
            c-1.407,0.891-2.538,1.132-4.216,1.132c-1.679,0-2.945-0.242-4.357-1.139c-27.411-17.399-46.259-45.12-52.654-76.413l0.184-0.036
            c2.761,12.966,14.273,22.693,28.065,22.693c5.057,0,9.804-1.309,13.93-3.604c0.278-0.152,0.552-0.309,0.815-0.473
            c4.126-2.301,8.888-3.616,13.95-3.616c5.039,0,9.775,1.303,13.894,3.587c0.006,0.005,0.012,0.005,0.018,0.011
            c0.272,0.164,0.545,0.321,0.818,0.473c8.362,5.009,13.958,14.166,13.958,24.626C467.188,94.732,463.55,102.316,457.753,107.572z"
            />
         <path fill="#4D4D4D" d="M438.5,36.597c0,10.435,5.564,19.568,13.894,24.59c-4.119-2.284-8.855-3.587-13.894-3.587
            c-5.063,0-9.824,1.315-13.95,3.616C432.91,56.202,438.5,47.051,438.5,36.597z"/>
      </g>
      <g>
         <path fill="#4D4D4D" d="M438.567,122.35c-1.658,0-3.472-0.179-5.516-1.476c-27.538-17.48-47.079-45.839-53.612-77.806
            c-1.386-6.76-2.192-13.682-2.398-20.572c-0.051-1.63,0.277-2.963,1.065-4.322c0.997-1.737,2.319-2.541,3.586-3.217
            c17.416-9.276,37.059-14.179,56.801-14.179c13.198,0,26.227,2.142,38.717,6.365c6.194,2.088,12.284,4.716,18.1,7.813
            c1.259,0.672,2.574,1.471,3.582,3.206c0.791,1.372,1.119,2.704,1.068,4.329c-0.997,33.17-15.819,64.816-40.663,86.82
            c-4.768,4.232-9.934,8.124-15.354,11.568C442.015,122.101,440.4,122.35,438.567,122.35z M438.492,5.103
            c-19.036,0-37.973,4.727-54.767,13.671c-1.107,0.589-1.509,0.925-1.873,1.561c-0.385,0.661-0.513,1.21-0.489,2.031
            c0.2,6.644,0.978,13.317,2.314,19.836c6.298,30.822,25.141,58.166,51.694,75.021c0.943,0.6,1.75,0.802,3.196,0.802
            c1.379,0,2.093-0.186,3.056-0.796c5.225-3.319,10.206-7.072,14.803-11.153c23.956-21.219,38.247-51.731,39.211-83.715
            c0.025-0.829-0.101-1.36-0.487-2.03c-0.37-0.633-0.772-0.97-1.875-1.557c-5.603-2.985-11.476-5.519-17.448-7.533
            C463.779,7.168,451.22,5.103,438.492,5.103z"/>
         <path fill="#4D4D4D" d="M454.255,112.198l-1.688-2.77c1.461-0.891,2.84-1.919,4.098-3.058c5.657-5.13,8.902-12.447,8.902-20.072
            c0-9.467-5.047-18.37-13.171-23.234c-0.259-0.159-0.509-0.302-0.76-0.44l1.55-2.849c0.305,0.165,0.602,0.337,0.891,0.515
            c9.084,5.438,14.733,15.407,14.733,26.008c0,8.539-3.633,16.731-9.967,22.477C457.432,110.05,455.89,111.201,454.255,112.198z"/>
         <path fill="#4D4D4D" d="M425.343,62.632l-1.581-2.832c4.479-2.5,9.576-3.821,14.738-3.821c5.133,0,10.21,1.31,14.681,3.789
            l-1.574,2.837c-3.99-2.213-8.523-3.382-13.106-3.382C433.892,59.223,429.34,60.402,425.343,62.632z"/>
         <path fill="#4D4D4D" d="M409.805,66.914c-14.221,0-26.694-10.083-29.651-23.976c-0.248-1.147-0.43-2.343-0.538-3.554l3.23-0.292
            c0.097,1.079,0.259,2.144,0.479,3.165c2.645,12.41,13.779,21.414,26.48,21.414c4.603,0,9.146-1.176,13.142-3.399
            c0.266-0.146,0.514-0.288,0.757-0.437c8.254-4.954,13.174-13.637,13.174-23.238h3.244c0,10.59-5.647,20.557-14.733,26.01
            c-0.275,0.17-0.573,0.341-0.878,0.506C420.046,65.597,414.958,66.914,409.805,66.914z"/>
         <path fill="#4D4D4D" d="M452.441,63.088c-0.276-0.153-0.552-0.311-0.825-0.476l-0.21-0.128
            c-9.1-5.556-14.529-15.221-14.529-25.887c0-16.713,13.6-30.311,30.311-30.311c3.352,0,6.639,0.541,9.771,1.607
            c0.447,0.157,0.874,0.314,1.295,0.479l-1.175,3.023c-0.39-0.151-0.785-0.297-1.181-0.437c-2.779-0.945-5.717-1.427-8.71-1.427
            c-14.925,0-27.067,12.143-27.067,27.067c0,9.562,4.885,18.223,13.069,23.176l0.205,0.124c0.207,0.123,0.414,0.242,0.621,0.357
            L452.441,63.088z"/>
      </g>
   </g>
</g>
</svg>
